<mxfile host="app.diagrams.net" modified="2022-11-09T07:06:36.540Z" agent="5.0 (Macintosh; Intel Mac OS X 10_15_7) AppleWebKit/537.36 (KHTML, like Gecko) Chrome/107.0.0.0 Safari/537.36" etag="uUF9Kfl_XAIzEky9_kXj" version="20.5.3" type="github">
  <diagram id="2ZCwWO_Yrce7QxQ5WR3_" name="第 1 页">
    <mxGraphModel dx="2253" dy="712" grid="1" gridSize="10" guides="1" tooltips="1" connect="1" arrows="1" fold="1" page="1" pageScale="1" pageWidth="827" pageHeight="1169" math="0" shadow="0">
      <root>
        <mxCell id="0" />
        <mxCell id="1" parent="0" />
        <mxCell id="MNHSjusy711UibiMtzt2-1" value="" style="rounded=0;whiteSpace=wrap;html=1;fillColor=#dae8fc;strokeColor=#6c8ebf;" vertex="1" parent="1">
          <mxGeometry x="150" y="250" width="350" height="120" as="geometry" />
        </mxCell>
        <mxCell id="MNHSjusy711UibiMtzt2-2" value="" style="endArrow=none;dashed=1;html=1;rounded=0;" edge="1" parent="1">
          <mxGeometry width="50" height="50" relative="1" as="geometry">
            <mxPoint x="100" y="390" as="sourcePoint" />
            <mxPoint x="590" y="390" as="targetPoint" />
          </mxGeometry>
        </mxCell>
        <mxCell id="MNHSjusy711UibiMtzt2-3" value="verify&amp;nbsp;" style="text;html=1;align=center;verticalAlign=middle;resizable=0;points=[];autosize=1;strokeColor=none;fillColor=none;" vertex="1" parent="1">
          <mxGeometry x="150" y="250" width="60" height="30" as="geometry" />
        </mxCell>
        <mxCell id="MNHSjusy711UibiMtzt2-7" style="edgeStyle=orthogonalEdgeStyle;rounded=0;orthogonalLoop=1;jettySize=auto;html=1;" edge="1" parent="1" source="MNHSjusy711UibiMtzt2-4">
          <mxGeometry relative="1" as="geometry">
            <mxPoint x="325" y="480" as="targetPoint" />
          </mxGeometry>
        </mxCell>
        <mxCell id="MNHSjusy711UibiMtzt2-4" value="onVerify" style="rounded=1;whiteSpace=wrap;html=1;fillColor=#f5f5f5;fontColor=#333333;strokeColor=#666666;" vertex="1" parent="1">
          <mxGeometry x="265" y="280" width="120" height="60" as="geometry" />
        </mxCell>
        <mxCell id="MNHSjusy711UibiMtzt2-6" value="business" style="text;html=1;align=center;verticalAlign=middle;resizable=0;points=[];autosize=1;strokeColor=none;fillColor=none;" vertex="1" parent="1">
          <mxGeometry x="5" y="425" width="70" height="30" as="geometry" />
        </mxCell>
        <mxCell id="MNHSjusy711UibiMtzt2-8" value="onSuccess(fetchResponse, next)" style="text;html=1;align=center;verticalAlign=middle;resizable=0;points=[];autosize=1;strokeColor=none;fillColor=none;" vertex="1" parent="1">
          <mxGeometry x="320" y="425" width="200" height="30" as="geometry" />
        </mxCell>
        <mxCell id="MNHSjusy711UibiMtzt2-10" style="edgeStyle=orthogonalEdgeStyle;rounded=0;orthogonalLoop=1;jettySize=auto;html=1;" edge="1" parent="1" source="MNHSjusy711UibiMtzt2-9">
          <mxGeometry relative="1" as="geometry">
            <mxPoint x="640" y="370" as="targetPoint" />
          </mxGeometry>
        </mxCell>
        <mxCell id="MNHSjusy711UibiMtzt2-14" style="edgeStyle=orthogonalEdgeStyle;rounded=0;orthogonalLoop=1;jettySize=auto;html=1;" edge="1" parent="1" source="MNHSjusy711UibiMtzt2-9">
          <mxGeometry relative="1" as="geometry">
            <mxPoint x="325" y="610" as="targetPoint" />
          </mxGeometry>
        </mxCell>
        <mxCell id="MNHSjusy711UibiMtzt2-9" value="business handle" style="rounded=1;whiteSpace=wrap;html=1;fillColor=#ffe6cc;strokeColor=#d79b00;" vertex="1" parent="1">
          <mxGeometry x="265" y="480" width="120" height="60" as="geometry" />
        </mxCell>
        <mxCell id="MNHSjusy711UibiMtzt2-11" value="" style="rounded=0;whiteSpace=wrap;html=1;fillColor=#dae8fc;strokeColor=#6c8ebf;" vertex="1" parent="1">
          <mxGeometry x="550" y="250" width="200" height="120" as="geometry" />
        </mxCell>
        <mxCell id="MNHSjusy711UibiMtzt2-12" value="success" style="text;html=1;align=center;verticalAlign=middle;resizable=0;points=[];autosize=1;strokeColor=none;fillColor=none;" vertex="1" parent="1">
          <mxGeometry x="550" y="250" width="70" height="30" as="geometry" />
        </mxCell>
        <mxCell id="MNHSjusy711UibiMtzt2-13" value="next ({ step, rdExinfo, trandId })" style="text;html=1;align=center;verticalAlign=middle;resizable=0;points=[];autosize=1;strokeColor=none;fillColor=none;" vertex="1" parent="1">
          <mxGeometry x="410" y="510" width="190" height="30" as="geometry" />
        </mxCell>
        <mxCell id="MNHSjusy711UibiMtzt2-15" value="business flow" style="text;html=1;align=center;verticalAlign=middle;resizable=0;points=[];autosize=1;strokeColor=none;fillColor=none;" vertex="1" parent="1">
          <mxGeometry x="275" y="610" width="100" height="30" as="geometry" />
        </mxCell>
        <mxCell id="MNHSjusy711UibiMtzt2-16" value="state machine" style="text;html=1;align=center;verticalAlign=middle;resizable=0;points=[];autosize=1;strokeColor=none;fillColor=none;" vertex="1" parent="1">
          <mxGeometry x="-10" y="290" width="100" height="30" as="geometry" />
        </mxCell>
      </root>
    </mxGraphModel>
  </diagram>
</mxfile>
